<svg width="35" height="34" viewBox="0 0 35 34" fill="none" xmlns="http://www.w3.org/2000/svg">
<rect width="35" height="34" rx="17" fill="#A098AE"/>
<path d="M24.4091 8.81818H22.6818V7.90909C22.6818 7.66799 22.5908 7.43675 22.4289 7.26627C22.2669 7.09578 22.0472 7 21.8182 7C21.5891 7 21.3695 7.09578 21.2075 7.26627C21.0455 7.43675 20.9545 7.66799 20.9545 7.90909V8.81818H18.3636V7.90909C18.3636 7.66799 18.2726 7.43675 18.1107 7.26627C17.9487 7.09578 17.7291 7 17.5 7C17.2709 7 17.0513 7.09578 16.8893 7.26627C16.7274 7.43675 16.6364 7.66799 16.6364 7.90909V8.81818H14.0455V7.90909C14.0455 7.66799 13.9545 7.43675 13.7925 7.26627C13.6305 7.09578 13.4109 7 13.1818 7C12.9528 7 12.7331 7.09578 12.5711 7.26627C12.4092 7.43675 12.3182 7.66799 12.3182 7.90909V8.81818H10.5909C9.90376 8.81818 9.24475 9.10552 8.75886 9.61698C8.27297 10.1284 8 10.8221 8 11.5455V24.2727C8 24.996 8.27297 25.6897 8.75886 26.2012C9.24475 26.7127 9.90376 27 10.5909 27H24.4091C25.0962 27 25.7553 26.7127 26.2411 26.2012C26.727 25.6897 27 24.996 27 24.2727V11.5455C27 10.8221 26.727 10.1284 26.2411 9.61698C25.7553 9.10552 25.0962 8.81818 24.4091 8.81818ZM9.72727 11.5455C9.72727 11.3043 9.81826 11.0731 9.98023 10.9026C10.1422 10.7321 10.3619 10.6364 10.5909 10.6364H12.3182V11.5455C12.3182 11.7866 12.4092 12.0178 12.5711 12.1883C12.7331 12.3588 12.9528 12.4545 13.1818 12.4545C13.4109 12.4545 13.6305 12.3588 13.7925 12.1883C13.9545 12.0178 14.0455 11.7866 14.0455 11.5455V10.6364H16.6364V11.5455C16.6364 11.7866 16.7274 12.0178 16.8893 12.1883C17.0513 12.3588 17.2709 12.4545 17.5 12.4545C17.7291 12.4545 17.9487 12.3588 18.1107 12.1883C18.2726 12.0178 18.3636 11.7866 18.3636 11.5455V10.6364H20.9545V11.5455C20.9545 11.7866 21.0455 12.0178 21.2075 12.1883C21.3695 12.3588 21.5891 12.4545 21.8182 12.4545C22.0472 12.4545 22.2669 12.3588 22.4289 12.1883C22.5908 12.0178 22.6818 11.7866 22.6818 11.5455V10.6364H24.4091C24.6381 10.6364 24.8578 10.7321 25.0198 10.9026C25.1817 11.0731 25.2727 11.3043 25.2727 11.5455V14.2727H9.72727V11.5455ZM25.2727 24.2727C25.2727 24.5138 25.1817 24.7451 25.0198 24.9156C24.8578 25.086 24.6381 25.1818 24.4091 25.1818H10.5909C10.3619 25.1818 10.1422 25.086 9.98023 24.9156C9.81826 24.7451 9.72727 24.5138 9.72727 24.2727V16.0909H25.2727V24.2727Z" fill="#F5F5F5"/>
</svg>
