<svg width="64" height="62" viewBox="0 0 64 62" fill="none" xmlns="http://www.w3.org/2000/svg">
<rect width="64" height="62" rx="31" fill="#A098AE"/>
<path d="M49.29 32.4089C48.8705 32.4089 48.4319 32.2786 48.0124 32.1855C47.1629 32.0027 46.3281 31.76 45.5145 31.4593C44.6299 31.145 43.6575 31.1613 42.7845 31.5051C41.9114 31.8488 41.1994 32.4958 40.7855 33.3213L40.366 34.1593C38.5087 33.1504 36.8021 31.8973 35.2938 30.4351C33.7965 28.9622 32.5133 27.2957 31.4801 25.482L32.281 24.9606C33.1264 24.5564 33.7889 23.8611 34.1409 23.0086C34.4929 22.1561 34.5096 21.2065 34.1878 20.3427C33.885 19.5465 33.6366 18.7316 33.4441 17.9034C33.3488 17.4937 33.2725 17.0654 33.2153 16.6372C32.9838 15.3255 32.2803 14.1378 31.2315 13.2877C30.1827 12.4377 28.8576 11.9812 27.4948 12.0006H21.7742C20.9525 11.9931 20.1387 12.1585 19.3882 12.4857C18.6378 12.8129 17.9684 13.2942 17.4256 13.8967C16.8827 14.4992 16.4792 15.2089 16.2425 15.9774C16.0057 16.746 15.9414 17.5553 16.0537 18.3503C17.0696 26.1512 20.7179 33.3993 26.4225 38.9497C32.127 44.5001 39.5627 48.0364 47.5548 49H48.2794C49.6855 49.002 51.0432 48.4982 52.0931 47.5848C52.6964 47.0579 53.1782 46.412 53.507 45.6898C53.8357 44.9676 54.0037 44.1855 53.9999 43.3952V37.8089C53.9766 36.5155 53.4943 35.2701 52.6353 34.2853C51.7763 33.3004 50.594 32.6373 49.29 32.4089ZM50.2435 43.5814C50.2431 43.8457 50.1851 44.107 50.0733 44.3478C49.9615 44.5886 49.7985 44.8034 49.5951 44.9779C49.3821 45.1576 49.1329 45.2918 48.8637 45.3719C48.5944 45.4521 48.311 45.4764 48.0315 45.4434C40.8902 44.5493 34.2569 41.3589 29.178 36.3757C24.0991 31.3924 20.8636 24.8998 19.9818 17.922C19.9515 17.6492 19.9781 17.3733 20.06 17.1108C20.1419 16.8484 20.2775 16.6049 20.4585 16.3951C20.6372 16.1965 20.8572 16.0373 21.1038 15.9281C21.3503 15.8189 21.6179 15.7623 21.8887 15.762H27.6092C28.0526 15.7523 28.4856 15.894 28.8337 16.1625C29.1817 16.431 29.423 16.8095 29.516 17.233C29.5923 17.742 29.6877 18.2447 29.8021 18.7413C30.0223 19.7229 30.3155 20.6875 30.6792 21.6275L28.0096 22.8379C27.7814 22.9401 27.5761 23.0854 27.4055 23.2654C27.2349 23.4454 27.1024 23.6565 27.0155 23.8866C26.9287 24.1167 26.8893 24.3613 26.8996 24.6063C26.9098 24.8513 26.9695 25.092 27.0753 25.3144C29.8196 31.0547 34.5449 35.669 40.4232 38.3489C40.8874 38.5352 41.4082 38.5352 41.8724 38.3489C42.1102 38.2659 42.3288 38.1375 42.5153 37.9713C42.7019 37.8051 42.8528 37.6043 42.9593 37.3807L44.1415 34.7738C45.1273 35.118 46.1334 35.404 47.1544 35.6303C47.6629 35.742 48.1777 35.8351 48.6989 35.9096C49.1326 36.0005 49.5203 36.2361 49.7952 36.576C50.0702 36.9158 50.2152 37.3387 50.2053 37.7717L50.2435 43.5814Z" fill="#F5F5F5"/>
</svg>
