<svg width="36" height="34" viewBox="0 0 36 34" fill="none" xmlns="http://www.w3.org/2000/svg">
<rect width="35.3262" height="34" rx="17" fill="#A098AE"/>
<path d="M20.3902 13.1218C20.3902 13.2679 20.3798 13.414 20.3609 13.5584C20.3695 13.5003 20.3781 13.4406 20.385 13.3825C20.3436 13.6713 20.2643 13.9519 20.1487 14.2208C20.1711 14.1677 20.1953 14.1146 20.2177 14.0615C20.1021 14.3238 19.9538 14.5695 19.7727 14.7953C19.8089 14.7504 19.8451 14.7056 19.8813 14.6608C19.7019 14.8832 19.4932 15.0841 19.2621 15.2568C19.3087 15.2219 19.3552 15.1871 19.4018 15.1522C19.1672 15.3248 18.9119 15.4693 18.6394 15.5805C18.6946 15.5589 18.7498 15.5357 18.805 15.5141C18.5255 15.6253 18.234 15.7017 17.9339 15.7415C17.9943 15.7332 18.0564 15.7249 18.1167 15.7183C17.8149 15.7565 17.5113 15.7565 17.2094 15.7183C17.2698 15.7266 17.3319 15.7349 17.3923 15.7415C17.0921 15.7017 16.8006 15.6253 16.5212 15.5141C16.5764 15.5357 16.6316 15.5589 16.6868 15.5805C16.4143 15.4693 16.159 15.3265 15.9244 15.1522C15.971 15.1871 16.0175 15.2219 16.0641 15.2568C15.833 15.0841 15.6242 14.8832 15.4449 14.6608C15.4811 14.7056 15.5173 14.7504 15.5535 14.7953C15.3741 14.5695 15.2241 14.3238 15.1085 14.0615C15.1309 14.1146 15.1551 14.1677 15.1775 14.2208C15.0619 13.9519 14.9826 13.6713 14.9412 13.3825C14.9498 13.4406 14.9584 13.5003 14.9653 13.5584C14.9257 13.2679 14.9257 12.9757 14.9653 12.6852C14.9567 12.7433 14.9481 12.8031 14.9412 12.8612C14.9826 12.5723 15.0619 12.2917 15.1775 12.0228C15.1551 12.0759 15.1309 12.129 15.1085 12.1822C15.2241 11.9199 15.3724 11.6742 15.5535 11.4484C15.5173 11.4932 15.4811 11.538 15.4449 11.5829C15.6242 11.3604 15.833 11.1595 16.0641 10.9869C16.0175 11.0217 15.971 11.0566 15.9244 11.0915C16.159 10.9188 16.4143 10.7744 16.6868 10.6631C16.6316 10.6847 16.5764 10.708 16.5212 10.7295C16.8006 10.6183 17.0921 10.5419 17.3923 10.5021C17.3319 10.5104 17.2698 10.5187 17.2094 10.5253C17.5113 10.4872 17.8149 10.4872 18.1167 10.5253C18.0564 10.517 17.9943 10.5087 17.9339 10.5021C18.234 10.5419 18.5255 10.6183 18.805 10.7295C18.7498 10.708 18.6946 10.6847 18.6394 10.6631C18.9119 10.7744 19.1672 10.9171 19.4018 11.0915C19.3552 11.0566 19.3087 11.0217 19.2621 10.9869C19.4932 11.1595 19.7019 11.3604 19.8813 11.5829C19.8451 11.538 19.8089 11.4932 19.7727 11.4484C19.952 11.6742 20.1021 11.9199 20.2177 12.1822C20.1953 12.129 20.1711 12.0759 20.1487 12.0228C20.2643 12.2917 20.3436 12.5723 20.385 12.8612C20.3764 12.8031 20.3678 12.7433 20.3609 12.6852C20.3798 12.8296 20.3884 12.9757 20.3902 13.1218C20.3919 13.4688 20.7058 13.8025 21.0801 13.7859C21.4527 13.7693 21.7718 13.4937 21.7701 13.1218C21.7667 12.3266 21.5183 11.5131 21.0318 10.8657C20.9007 10.6914 20.761 10.5204 20.6058 10.366C20.4488 10.2099 20.2763 10.0754 20.0969 9.94428C19.7709 9.70522 19.407 9.52924 19.0206 9.39311C17.463 8.8436 15.5846 9.33334 14.5306 10.5685C14.3858 10.7378 14.2478 10.9138 14.1305 11.1031C14.0132 11.2907 13.9218 11.4899 13.8372 11.6924C13.6785 12.0676 13.5975 12.4661 13.5647 12.8695C13.5009 13.6597 13.7148 14.4848 14.1425 15.1622C14.5548 15.8163 15.1775 16.3774 15.9054 16.6945C16.1193 16.7874 16.3384 16.8738 16.566 16.9352C16.792 16.995 17.0214 17.0282 17.2543 17.0547C17.6786 17.1029 18.1116 17.0697 18.5307 16.9883C20.1228 16.6762 21.4562 15.3564 21.7028 13.8075C21.7391 13.5817 21.7667 13.3559 21.7667 13.1268C21.7684 12.7798 21.4475 12.4461 21.0767 12.4627C20.7041 12.4744 20.3902 12.7499 20.3902 13.1218ZM22.6791 23.5028C22.341 23.5028 22.003 23.5028 21.6649 23.5028C20.8594 23.5028 20.0555 23.5028 19.25 23.5028C18.2806 23.5028 17.3112 23.5028 16.3401 23.5028C15.5035 23.5028 14.6669 23.5028 13.8286 23.5028C13.4371 23.5028 13.0455 23.5061 12.6539 23.5028C12.6108 23.5028 12.5677 23.4995 12.5263 23.4945C12.5867 23.5028 12.6488 23.5111 12.7091 23.5177C12.6401 23.5078 12.5746 23.4895 12.5108 23.4646C12.566 23.4862 12.6212 23.5094 12.6764 23.531C12.6074 23.5028 12.5436 23.4663 12.4832 23.4214C12.5298 23.4563 12.5763 23.4912 12.6229 23.526C12.5711 23.4845 12.5229 23.4397 12.4815 23.3899C12.5177 23.4347 12.5539 23.4795 12.5901 23.5244C12.5436 23.4663 12.5073 23.4048 12.4763 23.3384C12.4987 23.3915 12.5229 23.4447 12.5453 23.4978C12.5194 23.4364 12.5022 23.3716 12.4901 23.3069C12.4987 23.365 12.5073 23.4247 12.5142 23.4829C12.4866 23.282 12.5056 23.0695 12.5056 22.8669C12.5056 22.6295 12.5056 22.3938 12.5056 22.1564C12.5056 21.9788 12.516 21.8028 12.5401 21.6268C12.5315 21.6849 12.5229 21.7447 12.516 21.8028C12.5642 21.4624 12.6574 21.1288 12.7971 20.8117C12.7747 20.8648 12.7505 20.9179 12.7281 20.971C12.8627 20.6689 13.0352 20.385 13.2439 20.1244C13.2076 20.1692 13.1714 20.214 13.1352 20.2588C13.3439 20.0015 13.5837 19.7691 13.8528 19.5682C13.8062 19.6031 13.7596 19.6379 13.713 19.6728C13.9839 19.4719 14.2788 19.3059 14.5927 19.1764C14.5375 19.198 14.4824 19.2212 14.4272 19.2428C14.7566 19.11 15.1016 19.0187 15.4569 18.9722C15.3966 18.9805 15.3345 18.9888 15.2741 18.9955C15.5294 18.9639 15.7829 18.9622 16.0399 18.9622C16.3556 18.9622 16.6713 18.9622 16.9869 18.9622C17.7235 18.9622 18.46 18.9622 19.1965 18.9622C19.4811 18.9622 19.764 18.9606 20.0486 18.9955C19.9883 18.9872 19.9262 18.9789 19.8658 18.9722C20.2194 19.0187 20.5661 19.1083 20.8956 19.2428C20.8404 19.2212 20.7852 19.198 20.73 19.1764C21.0439 19.3059 21.3389 19.4719 21.6097 19.6728C21.5631 19.6379 21.5165 19.6031 21.47 19.5682C21.7373 19.7691 21.9788 19.9998 22.1875 20.2588C22.1513 20.214 22.1151 20.1692 22.0789 20.1244C22.2876 20.385 22.4601 20.6689 22.5946 20.971C22.5722 20.9179 22.548 20.8648 22.5256 20.8117C22.6636 21.1288 22.7585 21.4608 22.8068 21.8028C22.7982 21.7447 22.7895 21.6849 22.7826 21.6268C22.8154 21.8775 22.8171 22.1265 22.8171 22.3789C22.8171 22.6528 22.8171 22.9267 22.8171 23.2006C22.8171 23.2953 22.8206 23.3899 22.8085 23.4829C22.8171 23.4247 22.8258 23.365 22.8326 23.3069C22.8223 23.3733 22.8033 23.4364 22.7775 23.4978C22.7999 23.4447 22.824 23.3915 22.8464 23.3384C22.8171 23.4048 22.7792 23.4663 22.7326 23.5244C22.7688 23.4795 22.8051 23.4347 22.8413 23.3899C22.7982 23.4397 22.7516 23.4862 22.6998 23.526C22.7464 23.4912 22.793 23.4563 22.8395 23.4214C22.7792 23.4663 22.7154 23.5011 22.6464 23.531C22.7016 23.5094 22.7568 23.4862 22.812 23.4646C22.7481 23.4895 22.6809 23.5061 22.6136 23.5177C22.674 23.5094 22.7361 23.5011 22.7964 23.4945C22.7585 23.4995 22.7188 23.5011 22.6791 23.5028C22.5015 23.5044 22.3186 23.5758 22.191 23.697C22.072 23.8116 21.9805 24.0008 21.9892 24.1668C22.0064 24.5221 22.2928 24.8359 22.6791 24.8309C23.3501 24.8209 23.94 24.3993 24.1367 23.78C24.2143 23.5343 24.1971 23.2704 24.1971 23.018C24.1971 22.4403 24.216 21.8675 24.1125 21.2948C23.9607 20.4564 23.5226 19.6678 22.9223 19.0486C22.3221 18.4293 21.5148 17.9745 20.661 17.7719C20.1711 17.6557 19.6778 17.6374 19.1776 17.6374C18.6635 17.6374 18.1512 17.6374 17.6372 17.6374C17.1301 17.6374 16.6247 17.6374 16.1176 17.6374C15.6053 17.6374 15.0964 17.6607 14.5979 17.7885C13.751 18.0043 12.9541 18.4642 12.3659 19.0884C11.7725 19.7176 11.343 20.5079 11.2033 21.3512C11.1101 21.9173 11.1291 22.4851 11.1291 23.0562C11.1291 23.3185 11.1136 23.5924 11.2119 23.8431C11.3396 24.1652 11.5431 24.4192 11.8415 24.6101C12.0744 24.7579 12.3693 24.8292 12.6453 24.8326C12.7799 24.8342 12.9144 24.8326 13.0489 24.8326C13.3939 24.8326 13.7372 24.8326 14.0822 24.8326C14.572 24.8326 15.0602 24.8326 15.5501 24.8326C16.1193 24.8326 16.6885 24.8326 17.2577 24.8326C17.8425 24.8326 18.4255 24.8326 19.0102 24.8326C19.545 24.8326 20.078 24.8326 20.6127 24.8326C21.0318 24.8326 21.451 24.8326 21.8684 24.8326C22.1082 24.8326 22.3479 24.8326 22.5877 24.8326C22.6188 24.8326 22.6498 24.8326 22.6809 24.8326C23.0414 24.8326 23.3881 24.5271 23.3708 24.1685C23.3536 23.8066 23.0672 23.5028 22.6791 23.5028Z" fill="white"/>
</svg>
